<svg width="240" height="240" viewBox="0 0 240 240" fill="none" xmlns="http://www.w3.org/2000/svg">
<path d="M21 60L121 10L221 60L121 110L21 60Z" fill="#FEB96A"/>
<path d="M21 180V60L121 110V230L21 180Z" fill="#F29648"/>
<path d="M121 110L221 60V180L121 230V110Z" fill="#D2724E"/>
<path d="M159 91L183 79V120L159 132V91Z" fill="#844742"/>
<path d="M59 41.0001L83.0001 29L183 79L159 91.0001L59 41.0001Z" fill="#C2694C"/>
<path d="M77.8214 115.189L76.629 163.488L65.4384 157.969L64.2154 108.48L77.8214 115.189ZM71.0337 182.547C69.0157 181.552 67.2832 179.902 65.8359 177.597C64.3887 175.27 63.6753 172.986 63.6957 170.746C63.6753 168.509 64.3887 166.952 65.8359 166.074C67.2832 165.197 69.0157 165.256 71.0337 166.251C72.9701 167.206 74.6722 168.841 76.1398 171.156C77.6074 173.47 78.3514 175.746 78.3718 177.984C78.3514 179.474 77.9947 180.673 77.3016 181.581C76.629 182.476 75.7423 183.028 74.6416 183.235C73.5409 183.419 72.3383 183.19 71.0337 182.547Z" fill="#5F4048"/>
</svg>
