<svg width="240" height="240" viewBox="0 0 240 240" fill="none" xmlns="http://www.w3.org/2000/svg">
<path d="M21 60L121 10L221 60L121 110L21 60Z" fill="#FEB96A"/>
<path d="M21 180V60L121 110V230L21 180Z" fill="#F29648"/>
<path d="M121 110L221 60V180L121 230V110Z" fill="#D2724E"/>
<path d="M159 91L183 79V120L159 132V91Z" fill="#844742"/>
<path d="M59 41.0001L83.0001 29L183 79L159 91.0001L59 41.0001Z" fill="#C2694C"/>
<g clip-path="url(#clip0_5121_162630)">
<g clip-path="url(#clip1_5121_162630)">
<rect width="32" height="38" transform="matrix(0.896873 0.442289 0 1 83.5747 160.845)" fill="white"/>
<rect width="19" height="4" transform="matrix(0.896873 0.442289 0 1 91.6465 169.825)" fill="#404040"/>
<rect width="12" height="4" transform="matrix(0.896873 0.442289 0 1 97.9248 178.921)" fill="#404040"/>
<rect width="2" height="13" transform="matrix(0.896873 0.442289 0 1 87.1621 183.614)" fill="#404040"/>
<rect width="2" height="13" transform="matrix(0.896873 0.442289 0 1 97.9248 188.921)" fill="#404040"/>
<rect width="2" height="13" transform="matrix(0.896873 0.442289 0 1 101.512 190.69)" fill="#404040"/>
<rect width="4" height="13" transform="matrix(0.896873 0.442289 0 1 105.1 192.46)" fill="#404040"/>
<rect width="6" height="13" transform="matrix(0.896873 0.442289 0 1 90.7495 185.383)" fill="#404040"/>
</g>
<g clip-path="url(#clip2_5121_162630)">
<path d="M35.8293 165.385C35.5424 165.812 35.314 166.555 35.314 167.095C35.314 167.22 35.314 167.379 35.3421 167.614L31.7564 159.039C31.6416 158.762 31.5562 158.403 31.5562 158.117C31.5562 157.831 31.6416 157.526 31.7564 157.361L33.4778 154.886L31.5562 152.736L37.8096 155.692L40.8496 163.238L38.8998 161.042L35.8293 165.385ZM38.5836 147.559C39.1282 146.782 40.0182 146.651 41.1072 147.188C42.2841 147.768 43.2022 148.823 43.8615 150.382L44.837 152.667L41.4515 157.457L35.9733 151.241L38.5836 147.559ZM38.9841 172.418C37.3493 171.611 36.0014 169.459 36.0014 167.654C36.0014 167.148 36.2028 166.392 36.4897 165.995L37.4067 164.643L44.2058 167.996V174.993L38.9841 172.418V172.418ZM44.4354 150.254C44.0056 149.22 43.4318 148.365 42.7432 147.709L49.7987 151.188C50.4299 151.5 50.9171 152.026 51.2052 152.707L52.9548 156.862L54.8473 156.559L51.8059 161.076L45.583 157.91L47.5046 157.656L44.4354 150.254ZM55.3075 173.534C56.1671 173.958 56.8849 174.059 57.4869 173.85L53.9292 178.933C53.6423 179.329 53.1271 179.392 52.525 179.095L49.1676 177.439V179.877L45.9554 172.373L49.1676 168.036V170.506L55.3075 173.534V173.534ZM58.0595 169.193C58.3183 169.827 58.4623 170.436 58.4623 171.006C58.4623 172.146 57.8019 173.023 56.8849 173.14C56.454 173.182 55.8509 173.043 55.2501 172.747L53.3554 171.813L49.9721 163.684L55.4504 162.935L58.0595 169.193Z" fill="#5F4048"/>
</g>
</g>
<defs>
<clipPath id="clip0_5121_162630">
<rect width="116" height="116" fill="white" transform="matrix(0.896873 0.442289 0 1 19 63)"/>
</clipPath>
<clipPath id="clip1_5121_162630">
<rect width="32" height="38" fill="white" transform="matrix(0.896873 0.442289 0 1 83.5747 160.845)"/>
</clipPath>
<clipPath id="clip2_5121_162630">
<rect width="30" height="29" fill="white" transform="matrix(0.896873 0.442289 0 1 31.5562 142.192)"/>
</clipPath>
</defs>
</svg>
