<svg width="240" height="240" viewBox="0 0 240 240" fill="none" xmlns="http://www.w3.org/2000/svg">
<path d="M21 60L121 10L221 60L121 110L21 60Z" fill="#FEB96A"/>
<path d="M21 180V60L121 110V230L21 180Z" fill="#F29648"/>
<path d="M121 110L221 60V180L121 230V110Z" fill="#D2724E"/>
<path d="M159 91L183 79V120L159 132V91Z" fill="#844742"/>
<path d="M59 41.0001L83.0001 29L183 79L159 91L59 41.0001Z" fill="#C2694C"/>
<path d="M83.5748 160.845L112.275 174.998V212.998L83.5748 198.845V160.845Z" fill="white"/>
<path d="M91.6467 169.825L108.687 178.229V182.229L91.6467 173.825V169.825Z" fill="#404040"/>
<path d="M97.9248 178.921L108.687 184.229V188.229L97.9248 182.921V178.921Z" fill="#404040"/>
<path d="M87.1623 183.614L88.9561 184.499V197.499L87.1623 196.614V183.614Z" fill="#404040"/>
<path d="M97.9248 188.921L99.7186 189.806V202.806L97.9248 201.921V188.921Z" fill="#404040"/>
<path d="M101.512 190.691L103.306 191.575V204.575L101.512 203.691V190.691Z" fill="#404040"/>
<path d="M105.1 192.46L108.687 194.229V207.229L105.1 205.46V192.46Z" fill="#404040"/>
<path d="M90.7498 185.383L96.1311 188.037V201.037L90.7498 198.383V185.383Z" fill="#404040"/>
<path d="M35.8294 165.385C35.5425 165.812 35.3141 166.555 35.3141 167.095C35.3141 167.22 35.3141 167.379 35.3422 167.614L31.7565 159.039C31.6417 158.762 31.5562 158.403 31.5562 158.117C31.5562 157.831 31.6417 157.526 31.7565 157.361L33.4779 154.886L31.5562 152.736L37.8096 155.692L40.8497 163.238L38.8999 161.042L35.8294 165.385ZM38.5837 147.559C39.1282 146.782 40.0182 146.651 41.1073 147.188C42.2842 147.768 43.2023 148.823 43.8616 150.382L44.8371 152.667L41.4515 157.457L35.9734 151.241L38.5837 147.559ZM38.9842 172.417C37.3494 171.611 36.0015 169.459 36.0015 167.654C36.0015 167.148 36.2029 166.391 36.4898 165.995L37.4067 164.643L44.2058 167.996V174.993L38.9842 172.417ZM44.4354 150.254C44.0056 149.22 43.4318 148.365 42.7433 147.709L49.7988 151.188C50.43 151.5 50.9172 152.026 51.2053 152.706L52.9548 156.861L54.8474 156.559L51.806 161.076L45.583 157.91L47.5047 157.656L44.4354 150.254ZM55.3076 173.534C56.1671 173.958 56.885 174.059 57.4869 173.85L53.9293 178.933C53.6424 179.329 53.1272 179.392 52.525 179.095L49.1676 177.439V179.877L45.9554 172.373L49.1676 168.036V170.506L55.3076 173.534ZM58.0596 169.193C58.3184 169.827 58.4624 170.436 58.4624 171.006C58.4624 172.146 57.8019 173.023 56.885 173.14C56.4541 173.182 55.8509 173.043 55.2502 172.747L53.3555 171.813L49.9721 163.684L55.4505 162.935L58.0596 169.193Z" fill="#5F4048"/>
</svg>
