<svg width="240" height="240" viewBox="0 0 240 240" fill="none" xmlns="http://www.w3.org/2000/svg">
<path d="M21 60L121 10L221 60L121 110L21 60Z" fill="#FEB96A"/>
<path d="M21 180V60L121 110V230L21 180Z" fill="#F29648"/>
<path d="M121 110L221 60V180L121 230V110Z" fill="#D2724E"/>
<path d="M159 91L183 79V120L159 132V91Z" fill="#844742"/>
<path d="M59 41.0001L83.0001 29L183 79L159 91.0001L59 41.0001Z" fill="#C2694C"/>
<path d="M64.1915 156.861V155.702C64.2119 151.735 64.5279 148.72 65.1394 146.658C65.7713 144.606 66.6885 143.149 67.8911 142.288C69.0938 141.426 70.541 140.822 72.2328 140.474C73.4966 140.188 74.6279 139.803 75.6267 139.318C76.6255 138.834 77.4204 138.146 78.0115 137.256C78.6027 136.343 78.8982 135.148 78.8982 133.67C78.8982 132.102 78.5619 130.561 77.8892 129.048C77.2166 127.534 76.3095 126.178 75.168 124.978C74.0469 123.789 72.8036 122.858 71.4379 122.184C70.1129 121.531 68.8594 121.242 67.6771 121.318C66.4949 121.372 65.5267 121.849 64.7725 122.75C64.0183 123.628 63.6106 124.984 63.5495 126.817L51.0748 120.665C51.1767 116.17 52.1551 112.902 54.01 110.863C55.8649 108.8 58.3211 107.796 61.3786 107.849C64.4361 107.879 67.8096 108.804 71.499 110.624C75.5553 112.624 79.1428 115.143 82.2615 118.181C85.3802 121.196 87.8262 124.55 89.5995 128.243C91.3729 131.936 92.2596 135.771 92.2596 139.748C92.2596 142.407 91.8621 144.575 91.0671 146.251C90.2926 147.914 89.2021 149.195 87.7956 150.092C86.3891 150.967 84.7279 151.568 82.8118 151.896C81.2015 152.17 79.8766 152.63 78.8371 153.276C77.8179 153.933 77.0535 154.897 76.5439 156.168C76.0547 157.45 75.7999 159.199 75.7795 161.416V162.576L64.1915 156.861ZM70.2454 181.665C68.2071 180.659 66.4643 179.004 65.0171 176.7C63.5902 174.383 62.887 172.104 62.9074 169.864C62.887 167.627 63.5902 166.064 65.0171 165.177C66.4643 164.3 68.2071 164.364 70.2454 165.369C72.1819 166.324 73.8839 167.959 75.3515 170.274C76.8191 172.588 77.5631 174.864 77.5835 177.101C77.5631 178.591 77.2064 179.791 76.5133 180.699C75.8407 181.594 74.954 182.146 73.8533 182.353C72.7526 182.537 71.55 182.308 70.2454 181.665Z" fill="#5F4048"/>
</svg>
